#!OML:ASF I:\Actors\actors\Patient Classification 2\Patient 1\Session 1\actor1.ASF
:FULLY-SPECIFIED
:DEGREES
405
root -1.2664 17.8394 6.07801 8.96856 -59.9611 -14.3441
lowerback 8.96809 -8.65712 6.34692
upperback -3.4578 -10.4679 6.29045
thorax -8.63051 -5.29631 4.96096
lowerneck -16.9963 13.9586 18.5955
upperneck 16.121 17.0241 -11.8886
head 10.6096 7.90787 -4.4052
rclavicle 7.89175e-014 7.95139e-015
rhumerus -14.2942 4.69387 9.81618
rradius 150.865
rwrist -90.4605
rhand 4.25958 -60.119
rfingers 7.12502
rthumb 29.6635 -87.7666
lclavicle 7.89175e-014 7.95139e-015
lhumerus -16.8136 64.7783 32.1695
lradius 39.7718
lwrist 27.3374
lhand -12.2755 -27.5513
lfingers 7.12502
lthumb 13.7915 1.97157
rfemur 11.8004 15.498 24.2103
rtibia -19.5746
rfoot 20.9262 5.40978
rtoes 27.5741
lfemur 26.575 12.3464 -12.301
ltibia -7.96845
lfoot -27.8352 33.5512
ltoes 11.7945
406
root -1.27048 17.8378 6.08422 9.20698 -60.0472 -14.6101
lowerback 8.90781 -8.64588 6.50481
upperback -3.45495 -10.4396 6.31104
thorax -8.61914 -5.29103 4.88634
lowerneck -16.9716 13.9617 18.5572
upperneck 16.0689 17.0223 -11.8239
head 10.5753 7.91258 -4.37836
rclavicle 7.18607e-014 -3.49861e-014
rhumerus -15.0279 4.40077 9.80566
rradius 150.95
rwrist -90.4977
rhand 4.4665 -59.9313
rfingers 7.12502
rthumb 29.861 -87.5437
lclavicle 7.18607e-014 -3.49861e-014
lhumerus -17.1163 64.7363 31.7794
lradius 39.7332
lwrist 27.2947
lhand -12.2543 -27.7038
lfingers 7.12502
lthumb 13.812 1.81768
rfemur 11.7174 15.3833 24.3322
rtibia -19.4076
rfoot 21.0484 5.60191
rtoes 27.5336
lfemur 26.8859 12.4525 -12.1425
ltibia -8.47158
lfoot -27.5762 33.6575
ltoes 11.8133
407
root -1.27428 17.8378 6.09032 9.36771 -60.1237 -14.7461
lowerback 8.83556 -8.63759 6.59021
upperback -3.48146 -10.4237 6.334
thorax -8.61863 -5.28824 4.85503
lowerneck -16.8484 13.9617 18.5771
upperneck 15.9525 17.0406 -11.8718
head 10.5213 7.92307 -4.40089
rclavicle 7.60351e-014 -3.97569e-014
rhumerus -15.6949 4.11187 9.77481
rradius 151.018
rwrist -90.462
rhand 4.52328 -59.7111
rfingers 7.12502
rthumb 29.9152 -87.3137
lclavicle 7.60351e-014 -3.97569e-014
lhumerus -17.4563 64.7701 31.4012
lradius 39.7259
lwrist 27.289
lhand -12.2151 -27.8446
lfingers 7.12502
lthumb 13.8497 1.67432
rfemur 11.6557 15.3497 24.3754
rtibia -19.3543
rfoot 21.1148 5.66489
rtoes 27.6081
lfemur 26.9797 12.5497 -12.0667
ltibia -8.65361
lfoot -27.501 33.6758
ltoes 11.9241
408
root -1.27765 17.8374 6.09452 9.40961 -60.1949 -14.7528
lowerback 8.80194 -8.64089 6.56924
upperback -3.52395 -10.4311 6.36441
thorax -8.63599 -5.2909 4.89884
lowerneck -16.6086 13.9664 18.6238
upperneck 15.7552 17.0901 -11.9922
head 10.433 7.94758 -4.45257
rclavicle -4.56211e-014 -3.97569e-014
rhumerus -16.2453 3.92767 9.63991
rradius 151.008
rwrist -90.1995
rhand 4.68633 -60.4574
rfingers 7.12502
rthumb 30.0707 -88.0318
lclavicle -4.56211e-014 -3.97569e-014
lhumerus -17.8602 64.964 30.9823
lradius 39.7462
lwrist 27.1991
lhand -12.087 -27.7725
lfingers 7.12502
lthumb 13.9732 1.73787
rfemur 11.6321 15.3971 24.3585
rtibia -19.3607
rfoot 21.1294 5.62258
rtoes 27.7995
lfemur 26.9817 12.6374 -12.0668
ltibia -8.66818
lfoot -27.4954 33.6522
ltoes 11.8796
409
root -1.28135 17.8359 6.09775 9.48645 -60.2765 -14.8158
lowerback 8.78164 -8.64447 6.52879
upperback -3.55837 -10.4397 6.42187
thorax -8.64328 -5.293 4.98247
lowerneck -16.4299 13.9849 18.6565
upperneck 15.6424 17.1582 -12.1062
head 10.3873 7.9775 -4.49277
rclavicle -1.15196e-013 2.54444e-014
rhumerus -16.6814 3.73088 9.51072
rradius 150.95
rwrist -89.9339
rhand 3.49207 -54.5988
rfingers 7.12502
rthumb 28.9307 -82.3745
lclavicle -1.15196e-013 2.54444e-014
lhumerus -18.1676 65.0448 30.5368
lradius 39.6082
lwrist 27.1656
lhand -12.0121 -27.7636
lfingers 7.12502
lthumb 14.0453 1.74183
rfemur 11.6311 15.4355 24.3792
rtibia -19.3837
rfoot 21.1775 5.6167
rtoes 27.8736
lfemur 26.9804 12.7389 -12.0399
ltibia -8.64087
lfoot -27.4788 33.6326
ltoes 11.7031
410
root -1.28593 17.8342 6.10232 9.55994 -60.3643 -14.88
lowerback 8.6948 -8.63925 6.52112
upperback -3.55739 -10.4428 6.45428
thorax -8.58443 -5.29554 5.00445
lowerneck -16.3767 14.0143 18.7288
upperneck 15.6307 17.2183 -12.2208
head 10.4028 8 -4.53373
rclavicle -7.43455e-014 7.95139e-015
rhumerus -17.0901 3.52315 9.35322
rradius 150.896
rwrist -89.659
rhand 3.7374 -59.0389
rfingers 7.12502
rthumb 29.165 -86.7742
lclavicle -7.43455e-014 7.95139e-015
lhumerus -18.3134 65.0582 30.2252
lradius 39.4818
lwrist 27.1474
lhand -12.0237 -27.9042
lfingers 7.12502
lthumb 14.0342 1.60202
rfemur 11.6422 15.3978 24.3932
rtibia -19.4151
rfoot 21.2863 5.64843
rtoes 27.9366
lfemur 26.994 12.8481 -12.0163
ltibia -8.61823
lfoot -27.4411 33.6244
ltoes 11.5631
411
root -1.28962 17.8327 6.10738 9.62792 -60.4193 -14.952
lowerback 8.59413 -8.6413 6.56388
upperback -3.54002 -10.4527 6.46187
thorax -8.51381 -5.3042 4.97102
lowerneck -16.3512 14.0392 18.7792
upperneck 15.626 17.2588 -12.2772
head 10.4142 8.01682 -4.55357
rclavicle 5.46658e-014 -2.70347e-014
rhumerus -17.5121 3.43817 9.10658
rradius 150.881
rwrist -89.2887
rhand 4.12744 -59.1229
rfingers 7.12502
rthumb 29.5374 -86.793
lclavicle 5.46658e-014 -2.70347e-014
lhumerus -18.4045 65.0838 30.0232
lradius 39.4882
lwrist 27.117
lhand -12.097 -27.9268
lfingers 7.12502
lthumb 13.9635 1.58423
rfemur 11.6616 15.3378 24.4144
rtibia -19.4329
rfoot 21.3701 5.69145
rtoes 27.9604
lfemur 27.0383 12.9245 -11.9828
ltibia -8.64086
lfoot -27.4135 33.6178
ltoes 11.5503
